# xmcd
# Copyright (C) 1995-1998 Ti Kan
#
# Track frame offsets:
#       150
#       20680
#       40602
#       65166
#       85341
#       97566
#       113549
#       130290
#       146102
#       161554
#       177901
#       196023
#
# Disc length: 2884 seconds
#
# Revision: 0
# Processed by: cddbd v1.5.2PL0 Copyright (c) Steve Scherf et al.
# Submitted via: CD-Transfer v1.0
#
DISCID=980b420c
DTITLE=Teenage Fanclub - G. Love, N. Blake, R. Mcginley
DYEAR=10
DGENRE=
TTITLE0=Sometimes I Don't Need To Beli
TTITLE1=Baby Lee
TTITLE2=Fall, The
TTITLE3=Into The City
TTITLE4=Dark Clouds
TTITLE5=Past, The
TTITLE6=Shock And Awe
TTITLE7=When I Still Have Thee
TTITLE8=Live With The Seasons
TTITLE9=Sweet Days Waiting
TTITLE10=Back Of My Mind, The
TTITLE11=Today Never Ends
EXTD=
EXTT0=
EXTT1=
EXTT2=
EXTT3=
EXTT4=
EXTT5=
EXTT6=
EXTT7=
EXTT8=
EXTT9=
EXTT10=
EXTT11=
PLAYORDER=
